<svg xmlns="http://www.w3.org/2000/svg" xmlns:xlink="http://www.w3.org/1999/xlink" contentStyleType="text/css" data-diagram-type="CLASS" height="252px" preserveAspectRatio="none" style="width:737px;height:252px;background:#FFFFFF;" version="1.1" viewBox="0 0 737 252" width="737px" zoomAndPan="magnify"><defs/><g><!--class Type--><g class="entity" data-entity="Type" data-source-line="4" data-uid="ent0002" id="entity_Type"><rect fill="#F1F1F1" height="56.6211" rx="2.5" ry="2.5" style="stroke:#181818;stroke-width:0.5;" width="64.7783" x="29.66" y="19.18"/><ellipse cx="44.66" cy="39.4905" fill="#B1B1B1" rx="11" ry="11" style="stroke:#181818;stroke-width:1;"/><path d="M41.0877,35.7557 L41.0877,33.5975 L48.4671,33.5975 L48.4671,35.7557 L46.0018,35.7557 L46.0018,43.8323 L48.4671,43.8323 L48.4671,45.9905 L41.0877,45.9905 L41.0877,43.8323 L43.5531,43.8323 L43.5531,35.7557 Z " fill="#000000"/><text fill="#000000" font-family="sans-serif" font-size="12" font-style="italic" lengthAdjust="spacing" textLength="36.5566" x="56.7708" y="35.7816">&#171;trait&#187;</text><text fill="#000000" font-family="sans-serif" font-size="14" font-style="italic" lengthAdjust="spacing" textLength="32.7783" x="58.66" y="51.848">Type</text><line style="stroke:#181818;stroke-width:0.5;" x1="30.66" x2="93.4383" y1="59.8011" y2="59.8011"/><line style="stroke:#181818;stroke-width:0.5;" x1="30.66" x2="93.4383" y1="67.8011" y2="67.8011"/></g><!--class Node--><g class="entity" data-entity="Node" data-source-line="5" data-uid="ent0003" id="entity_Node"><rect fill="#F1F1F1" height="56.6211" rx="2.5" ry="2.5" style="stroke:#181818;stroke-width:0.5;" width="67.5537" x="183.27" y="19.18"/><ellipse cx="198.27" cy="39.4905" fill="#B1B1B1" rx="11" ry="11" style="stroke:#181818;stroke-width:1;"/><path d="M194.6977,35.7557 L194.6977,33.5975 L202.0771,33.5975 L202.0771,35.7557 L199.6118,35.7557 L199.6118,43.8323 L202.0771,43.8323 L202.0771,45.9905 L194.6977,45.9905 L194.6977,43.8323 L197.1631,43.8323 L197.1631,35.7557 Z " fill="#000000"/><text fill="#000000" font-family="sans-serif" font-size="12" font-style="italic" lengthAdjust="spacing" textLength="36.5566" x="211.7685" y="35.7816">&#171;trait&#187;</text><text fill="#000000" font-family="sans-serif" font-size="14" font-style="italic" lengthAdjust="spacing" textLength="35.5537" x="212.27" y="51.848">Node</text><line style="stroke:#181818;stroke-width:0.5;" x1="184.27" x2="249.8237" y1="59.8011" y2="59.8011"/><line style="stroke:#181818;stroke-width:0.5;" x1="184.27" x2="249.8237" y1="67.8011" y2="67.8011"/></g><!--class Metavariable--><g class="entity" data-entity="Metavariable" data-source-line="6" data-uid="ent0004" id="entity_Metavariable"><rect fill="#F1F1F1" height="56.6211" rx="2.5" ry="2.5" style="stroke:#181818;stroke-width:0.5;" width="117.9688" x="304.06" y="19.18"/><ellipse cx="319.06" cy="39.4905" fill="#B1B1B1" rx="11" ry="11" style="stroke:#181818;stroke-width:1;"/><path d="M315.4877,35.7557 L315.4877,33.5975 L322.8671,33.5975 L322.8671,35.7557 L320.4018,35.7557 L320.4018,43.8323 L322.8671,43.8323 L322.8671,45.9905 L315.4877,45.9905 L315.4877,43.8323 L317.9531,43.8323 L317.9531,35.7557 Z " fill="#000000"/><text fill="#000000" font-family="sans-serif" font-size="12" font-style="italic" lengthAdjust="spacing" textLength="36.5566" x="357.7661" y="35.7816">&#171;trait&#187;</text><text fill="#000000" font-family="sans-serif" font-size="14" font-style="italic" lengthAdjust="spacing" textLength="85.9688" x="333.06" y="51.848">Metavariable</text><line style="stroke:#181818;stroke-width:0.5;" x1="305.06" x2="421.0288" y1="59.8011" y2="59.8011"/><line style="stroke:#181818;stroke-width:0.5;" x1="305.06" x2="421.0288" y1="67.8011" y2="67.8011"/></g><!--class Term--><g class="entity" data-entity="Term" data-source-line="7" data-uid="ent0005" id="entity_Term"><rect fill="#F1F1F1" height="56.6211" rx="2.5" ry="2.5" style="stroke:#181818;stroke-width:0.5;" width="67.4512" x="463.32" y="19.18"/><ellipse cx="478.32" cy="39.4905" fill="#B1B1B1" rx="11" ry="11" style="stroke:#181818;stroke-width:1;"/><path d="M474.7477,35.7557 L474.7477,33.5975 L482.1271,33.5975 L482.1271,35.7557 L479.6618,35.7557 L479.6618,43.8323 L482.1271,43.8323 L482.1271,45.9905 L474.7477,45.9905 L474.7477,43.8323 L477.2131,43.8323 L477.2131,35.7557 Z " fill="#000000"/><text fill="#000000" font-family="sans-serif" font-size="12" font-style="italic" lengthAdjust="spacing" textLength="36.5566" x="491.7673" y="35.7816">&#171;trait&#187;</text><text fill="#000000" font-family="sans-serif" font-size="14" font-style="italic" lengthAdjust="spacing" textLength="35.4512" x="492.32" y="51.848">Term</text><line style="stroke:#181818;stroke-width:0.5;" x1="464.32" x2="529.7712" y1="59.8011" y2="59.8011"/><line style="stroke:#181818;stroke-width:0.5;" x1="464.32" x2="529.7712" y1="67.8011" y2="67.8011"/></g><!--class SimpleType--><g class="entity" data-entity="SimpleType" data-source-line="9" data-uid="ent0006" id="entity_SimpleType"><rect fill="#F1F1F1" height="97.4648" rx="2.5" ry="2.5" style="stroke:#181818;stroke-width:0.5;" width="110.0938" x="7" y="147.98"/><ellipse cx="22" cy="163.98" fill="#C2C2C2" rx="11" ry="11" style="stroke:#181818;stroke-width:1;"/><path d="M24.4731,170.1231 Q23.8921,170.4219 23.2529,170.5713 Q22.6138,170.7207 21.9082,170.7207 Q19.4014,170.7207 18.0815,169.0689 Q16.7617,167.417 16.7617,164.2959 Q16.7617,161.1665 18.0815,159.5147 Q19.4014,157.8628 21.9082,157.8628 Q22.6138,157.8628 23.2612,158.0122 Q23.9087,158.1616 24.4731,158.4605 L24.4731,161.1831 Q23.8423,160.6021 23.2488,160.3323 Q22.6553,160.0625 22.0244,160.0625 Q20.6797,160.0625 19.9949,161.1292 Q19.3101,162.1958 19.3101,164.2959 Q19.3101,166.3877 19.9949,167.4544 Q20.6797,168.521 22.0244,168.521 Q22.6553,168.521 23.2488,168.2512 Q23.8423,167.9815 24.4731,167.4004 Z " fill="#000000"/><text fill="#000000" font-family="sans-serif" font-size="14" lengthAdjust="spacing" textLength="78.0938" x="36" y="169.271">SimpleType</text><line style="stroke:#181818;stroke-width:0.5;" x1="8" x2="116.0938" y1="179.98" y2="179.98"/><text fill="#000000" font-family="sans-serif" font-size="14" lengthAdjust="spacing" textLength="53.5186" x="13" y="197.5152">Boolean</text><text fill="#000000" font-family="sans-serif" font-size="14" lengthAdjust="spacing" textLength="41.2822" x="13" y="214.0034">Setvar</text><text fill="#000000" font-family="sans-serif" font-size="14" lengthAdjust="spacing" textLength="35.7383" x="13" y="230.4917">Class</text><line style="stroke:#181818;stroke-width:0.5;" x1="8" x2="116.0938" y1="237.4448" y2="237.4448"/></g><!--class NodeByte--><g class="entity" data-entity="NodeByte" data-source-line="15" data-uid="ent0007" id="entity_NodeByte"><rect fill="#F1F1F1" height="97.4648" rx="2.5" ry="2.5" style="stroke:#181818;stroke-width:0.5;" width="129.6396" x="152.23" y="147.98"/><ellipse cx="182.3872" cy="163.98" fill="#C2C2C2" rx="11" ry="11" style="stroke:#181818;stroke-width:1;"/><path d="M184.8603,170.1231 Q184.2793,170.4219 183.6401,170.5713 Q183.0009,170.7207 182.2954,170.7207 Q179.7885,170.7207 178.4687,169.0689 Q177.1489,167.417 177.1489,164.2959 Q177.1489,161.1665 178.4687,159.5147 Q179.7885,157.8628 182.2954,157.8628 Q183.0009,157.8628 183.6484,158.0122 Q184.2959,158.1616 184.8603,158.4605 L184.8603,161.1831 Q184.2295,160.6021 183.636,160.3323 Q183.0425,160.0625 182.4116,160.0625 Q181.0669,160.0625 180.3821,161.1292 Q179.6972,162.1958 179.6972,164.2959 Q179.6972,166.3877 180.3821,167.4544 Q181.0669,168.521 182.4116,168.521 Q183.0425,168.521 183.636,168.2512 Q184.2295,167.9815 184.8603,167.4004 Z " fill="#000000"/><text fill="#000000" font-family="sans-serif" font-size="14" lengthAdjust="spacing" textLength="63.957" x="199.7554" y="169.271">NodeByte</text><line style="stroke:#181818;stroke-width:0.5;" x1="153.23" x2="280.8696" y1="179.98" y2="179.98"/><text fill="#000000" font-family="sans-serif" font-size="14" lengthAdjust="spacing" textLength="107.1875" x="158.23" y="197.5152">True, False, Not</text><text fill="#000000" font-family="sans-serif" font-size="14" lengthAdjust="spacing" textLength="110.4277" x="158.23" y="214.0034">And, Or, Implies</text><line style="stroke:#181818;stroke-width:0.5;" x1="153.23" x2="280.8696" y1="220.9566" y2="220.9566"/><text fill="#000000" font-family="sans-serif" font-size="14" lengthAdjust="spacing" textLength="117.6396" x="158.23" y="238.4917">... (222 ops total)</text></g><!--class MetaByte--><g class="entity" data-entity="MetaByte" data-source-line="21" data-uid="ent0008" id="entity_MetaByte"><rect fill="#F1F1F1" height="64.4883" rx="2.5" ry="2.5" style="stroke:#181818;stroke-width:0.5;" width="93.2295" x="316.43" y="164.46"/><ellipse cx="331.43" cy="180.46" fill="#C2C2C2" rx="11" ry="11" style="stroke:#181818;stroke-width:1;"/><path d="M333.9031,186.6031 Q333.3221,186.9019 332.6829,187.0513 Q332.0438,187.2007 331.3382,187.2007 Q328.8314,187.2007 327.5115,185.5489 Q326.1917,183.897 326.1917,180.7759 Q326.1917,177.6465 327.5115,175.9947 Q328.8314,174.3428 331.3382,174.3428 Q332.0438,174.3428 332.6912,174.4922 Q333.3387,174.6416 333.9031,174.9405 L333.9031,177.6631 Q333.2723,177.0821 332.6788,176.8123 Q332.0853,176.5425 331.4544,176.5425 Q330.1097,176.5425 329.4249,177.6092 Q328.7401,178.6758 328.7401,180.7759 Q328.7401,182.8677 329.4249,183.9344 Q330.1097,185.001 331.4544,185.001 Q332.0853,185.001 332.6788,184.7312 Q333.2723,184.4615 333.9031,183.8804 Z " fill="#000000"/><text fill="#000000" font-family="sans-serif" font-size="14" lengthAdjust="spacing" textLength="61.2295" x="345.43" y="185.751">MetaByte</text><line style="stroke:#181818;stroke-width:0.5;" x1="317.43" x2="408.6595" y1="196.46" y2="196.46"/><text fill="#000000" font-family="sans-serif" font-size="14" lengthAdjust="spacing" textLength="17.541" x="322.43" y="213.9952">u8</text><line style="stroke:#181818;stroke-width:0.5;" x1="317.43" x2="408.6595" y1="220.9483" y2="220.9483"/></g><!--class EnumTerm<T,V,N>--><g class="entity" data-entity="EnumTerm.T.V.N." data-source-line="25" data-uid="ent0009" id="entity_EnumTerm.T.V.N."><rect fill="#F1F1F1" height="80.9766" rx="2.5" ry="2.5" style="stroke:#181818;stroke-width:0.5;" width="164.9521" x="565.57" y="7"/><ellipse cx="580.57" cy="23" fill="#C2C2C2" rx="11" ry="11" style="stroke:#181818;stroke-width:1;"/><path d="M583.0431,29.1431 Q582.4621,29.4419 581.8229,29.5913 Q581.1838,29.7407 580.4782,29.7407 Q577.9714,29.7407 576.6515,28.0889 Q575.3317,26.437 575.3317,23.3159 Q575.3317,20.1865 576.6515,18.5347 Q577.9714,16.8828 580.4782,16.8828 Q581.1838,16.8828 581.8312,17.0322 Q582.4787,17.1816 583.0431,17.4805 L583.0431,20.2031 Q582.4123,19.6221 581.8188,19.3523 Q581.2253,19.0825 580.5944,19.0825 Q579.2497,19.0825 578.5649,20.1492 Q577.8801,21.2158 577.8801,23.3159 Q577.8801,25.4077 578.5649,26.4744 Q579.2497,27.541 580.5944,27.541 Q581.2253,27.541 581.8188,27.2712 Q582.4123,27.0015 583.0431,26.4204 Z " fill="#000000"/><text fill="#000000" font-family="sans-serif" font-size="14" lengthAdjust="spacing" textLength="132.9521" x="594.57" y="28.291">EnumTerm&lt;T,V,N&gt;</text><line style="stroke:#181818;stroke-width:0.5;" x1="566.57" x2="729.5221" y1="39" y2="39"/><line style="stroke:#181818;stroke-width:0.5;" x1="566.57" x2="729.5221" y1="47" y2="47"/><text fill="#000000" font-family="sans-serif" font-size="14" lengthAdjust="spacing" textLength="46.4023" x="571.57" y="64.5352">Leaf(V)</text><text fill="#000000" font-family="sans-serif" font-size="14" lengthAdjust="spacing" textLength="132.7334" x="571.57" y="81.0234">NodeOrLeaf(N, Vec)</text></g><!--class EnumTerm--><g class="entity" data-entity="EnumTerm" data-source-line="33" data-uid="ent0013" id="entity_EnumTerm"><rect fill="#F1F1F1" height="48" rx="2.5" ry="2.5" style="stroke:#181818;stroke-width:0.5;" width="105.4863" x="444.3" y="172.71"/><ellipse cx="459.3" cy="188.71" fill="#C2C2C2" rx="11" ry="11" style="stroke:#181818;stroke-width:1;"/><path d="M461.7731,194.8531 Q461.1921,195.1519 460.5529,195.3013 Q459.9138,195.4507 459.2082,195.4507 Q456.7014,195.4507 455.3815,193.7989 Q454.0617,192.147 454.0617,189.0259 Q454.0617,185.8965 455.3815,184.2447 Q456.7014,182.5928 459.2082,182.5928 Q459.9138,182.5928 460.5612,182.7422 Q461.2087,182.8916 461.7731,183.1905 L461.7731,185.9131 Q461.1423,185.3321 460.5488,185.0623 Q459.9553,184.7925 459.3244,184.7925 Q457.9797,184.7925 457.2949,185.8592 Q456.6101,186.9258 456.6101,189.0259 Q456.6101,191.1177 457.2949,192.1844 Q457.9797,193.251 459.3244,193.251 Q459.9553,193.251 460.5488,192.9812 Q461.1423,192.7115 461.7731,192.1304 Z " fill="#000000"/><text fill="#000000" font-family="sans-serif" font-size="14" lengthAdjust="spacing" textLength="73.4863" x="473.3" y="194.001">EnumTerm</text><line style="stroke:#181818;stroke-width:0.5;" x1="445.3" x2="548.7863" y1="204.71" y2="204.71"/><line style="stroke:#181818;stroke-width:0.5;" x1="445.3" x2="548.7863" y1="212.71" y2="212.71"/></g><!--reverse link Type to SimpleType--><g class="link" data-entity-1="Type" data-entity-2="SimpleType" data-source-line="30" data-uid="lnk10" id="link_Type_SimpleType"><path codeLine="30" d="M62.05,94.18 C62.05,114.25 62.05,123.91 62.05,147.57" fill="none" id="Type-backto-SimpleType" style="stroke:#181818;stroke-width:1;stroke-dasharray:7,7;"/><polygon fill="none" points="62.05,76.18,56.05,94.18,68.05,94.18,62.05,76.18" style="stroke:#181818;stroke-width:1;"/></g><!--reverse link Node to NodeByte--><g class="link" data-entity-1="Node" data-entity-2="NodeByte" data-source-line="31" data-uid="lnk11" id="link_Node_NodeByte"><path codeLine="31" d="M217.05,94.18 C217.05,114.25 217.05,123.91 217.05,147.57" fill="none" id="Node-backto-NodeByte" style="stroke:#181818;stroke-width:1;stroke-dasharray:7,7;"/><polygon fill="none" points="217.05,76.18,211.05,94.18,223.05,94.18,217.05,76.18" style="stroke:#181818;stroke-width:1;"/></g><!--reverse link Metavariable to MetaByte--><g class="link" data-entity-1="Metavariable" data-entity-2="MetaByte" data-source-line="32" data-uid="lnk12" id="link_Metavariable_MetaByte"><path codeLine="32" d="M363.05,94.18 C363.05,119.17 363.05,137.91 363.05,164.05" fill="none" id="Metavariable-backto-MetaByte" style="stroke:#181818;stroke-width:1;stroke-dasharray:7,7;"/><polygon fill="none" points="363.05,76.18,357.05,94.18,369.05,94.18,363.05,76.18" style="stroke:#181818;stroke-width:1;"/></g><!--reverse link Term to EnumTerm--><g class="link" data-entity-1="Term" data-entity-2="EnumTerm" data-source-line="33" data-uid="lnk14" id="link_Term_EnumTerm"><path codeLine="33" d="M497.05,94.18 C497.05,122 497.05,146.39 497.05,172.5" fill="none" id="Term-backto-EnumTerm" style="stroke:#181818;stroke-width:1;stroke-dasharray:7,7;"/><polygon fill="none" points="497.05,76.18,491.05,94.18,503.05,94.18,497.05,76.18" style="stroke:#181818;stroke-width:1;"/></g><!--SRC=[RL3BQiCm4BphAvQS4X2c-DI3CIIbXK3h76nytpWR8gg7aTQ5zF7lbMpSk92JLZExixCJtfNjqQC1uwphBjuP0lO3YV37T1f3s39xTHoOzfspjVeaU112MIP_newWkVO4HS4U5PVbWgZSwJxnHemVw1KUzVs6XhnP46Aq0RKolQPntPS0s3cd2MsiQk8e5ukdr2T-ve5LSh2xCgt6WIRU9k45TOXFvJX2MtkISF0Izb5QKOXGbcMmplCSN1-07QFUB1IJzPlYyBYWdkrWal6YaQsiogdZbV2yRZUnIbuEVlnN4bhgHjaflE-uytQTc89Bu7o0-1zPecOdOWehGRC3yGi0]--></g></svg>